<svg width="42" height="37" viewBox="0 0 42 37" fill="none" xmlns="http://www.w3.org/2000/svg">
<path d="M22.7367 0.854492C13.0492 0.854492 5.19645 8.70724 5.19645 18.3928H6.98501C6.98501 9.69498 14.036 2.64207 22.7358 2.64207C31.4356 2.64207 38.4865 9.69498 38.4865 18.3928C38.4865 27.0907 31.4356 34.1455 22.7358 34.1455V35.9321C32.4233 35.9321 40.2761 28.0794 40.2761 18.3918C40.2761 8.70429 32.4233 0.854492 22.7367 0.854492Z" fill="#FAFAFA"/>
<path d="M22.7368 36.6914H21.9773V33.3848H22.7368C31.0027 33.3848 37.728 26.6585 37.728 18.3916C37.728 10.1246 31.0027 3.40032 22.7368 3.40032C14.4708 3.40032 7.7455 10.1256 7.7455 18.3926V19.1521H4.43696V18.3926C4.43696 8.30361 12.6458 0.0947266 22.7368 0.0947266C32.8277 0.0947266 41.0365 8.30263 41.0365 18.3926C41.0365 28.4825 32.8277 36.6923 22.7368 36.6923V36.6914ZM23.4963 34.8871V35.1547C32.3977 34.7562 39.5166 27.3895 39.5166 18.3916C39.5166 9.39367 31.9895 1.61372 22.7368 1.61372C13.484 1.61372 6.37211 8.73255 5.97367 17.6321H6.24323C6.64167 8.87914 13.8874 1.88132 22.7368 1.88132C31.5861 1.88132 39.247 9.28742 39.247 18.3916C39.247 27.4957 32.2492 34.4886 23.4963 34.8871Z" fill="#FAFAFA"/>
<path d="M22.7368 36.0273H22.6413V34.0498H22.7368C31.3697 34.0498 38.3931 27.0254 38.3931 18.3916C38.3931 9.75766 31.3697 2.73525 22.7368 2.73525C14.1038 2.73525 7.08045 9.75963 7.08045 18.3925V18.488H5.10201V18.3925C5.10201 8.66958 13.0128 0.759766 22.7368 0.759766C32.4607 0.759766 40.3715 8.66958 40.3715 18.3925C40.3715 28.1155 32.4607 36.0273 22.7368 36.0273ZM22.8312 34.2397V35.8374C32.4066 35.7862 40.1816 27.9797 40.1816 18.3925C40.1816 8.80534 32.3554 0.948657 22.7368 0.948657C13.1181 0.948657 5.34305 8.7227 5.29189 18.2971H6.89057C6.94173 9.60321 14.0301 2.54636 22.7358 2.54636C31.4415 2.54636 38.582 9.65437 38.582 18.3925C38.582 27.1307 31.5251 34.1895 22.8312 34.2397Z" fill="#FAFAFA"/>
<path d="M22.7368 36.7865H21.8818V33.2901H22.7368C30.9506 33.2901 37.6326 26.6071 37.6326 18.3923C37.6326 10.1775 30.9506 3.49645 22.7368 3.49645C14.523 3.49645 7.83996 10.1785 7.83996 18.3923V19.2472H4.34154V18.3923C4.34154 8.25021 12.5937 0 22.7358 0C32.8778 0 41.13 8.25119 41.13 18.3923C41.13 28.5334 32.8778 36.7865 22.7358 36.7865H22.7368ZM23.5907 34.9773V35.055C32.3879 34.6074 39.4211 27.2869 39.4211 18.3913C39.4211 9.49571 31.9363 1.70887 22.7368 1.70887C13.5372 1.70887 6.52067 8.74113 6.07304 17.5373H6.15273C6.60036 8.7854 13.8864 1.78659 22.7368 1.78659C31.5871 1.78659 39.3424 9.23598 39.3424 18.3923C39.3424 27.5486 32.3436 34.5306 23.5917 34.9783L23.5907 34.9773Z" fill="#FAFAFA"/>
<path d="M6.73613 36.2199C3.44136 36.2199 0.760483 33.538 0.760483 30.2423C0.760483 26.9465 3.44136 24.2646 6.73613 24.2646C10.0309 24.2646 12.7118 26.9465 12.7118 30.2423C12.7118 33.538 10.0309 36.2199 6.73613 36.2199ZM6.73613 26.2578C4.54027 26.2578 2.75368 28.0454 2.75368 30.2413C2.75368 32.4371 4.54027 34.2247 6.73613 34.2247C8.93198 34.2247 10.7186 32.4371 10.7186 30.2413C10.7186 28.0454 8.93198 26.2578 6.73613 26.2578Z" fill="#FAFAFA"/>
<path d="M6.73613 36.9791C3.02226 36.9791 0 33.9569 0 30.242C0 26.5271 3.02127 23.5049 6.73613 23.5049C10.451 23.5049 13.4713 26.5271 13.4713 30.242C13.4713 33.9569 10.45 36.9791 6.73613 36.9791ZM6.73613 25.0239C3.85948 25.0239 1.51998 27.3644 1.51998 30.242C1.51998 33.1196 3.86046 35.4601 6.73613 35.4601C9.6118 35.4601 11.9523 33.1196 11.9523 30.242C11.9523 27.3644 9.6118 25.0239 6.73613 25.0239ZM6.73613 34.9849C4.12117 34.9849 1.99418 32.857 1.99418 30.242C1.99418 27.627 4.12117 25.4991 6.73613 25.4991C9.35109 25.4991 11.4781 27.627 11.4781 30.242C11.4781 32.857 9.35109 34.9849 6.73613 34.9849ZM6.73613 27.0171C4.95937 27.0171 3.51318 28.4633 3.51318 30.241C3.51318 32.0187 4.95937 33.4649 6.73613 33.4649C8.51288 33.4649 9.95908 32.0187 9.95908 30.241C9.95908 28.4633 8.51288 27.0171 6.73613 27.0171Z" fill="#FAFAFA"/>
<path d="M34.7815 6.59578C35.2065 6.59578 35.2646 6.57808 35.3334 6.60956C35.8135 6.82501 35.7279 8.0223 35.6561 8.63226C35.0737 8.57619 34.4883 8.57619 33.9158 8.63226C27.6656 9.24321 23.2729 16.5706 20.0657 21.9205C19.0042 23.6914 18.0981 25.3776 17.2993 26.8642C13.3886 34.1424 10.8111 35.6801 8.51191 36.1208C7.76422 36.2645 7.13064 36.2487 6.73515 36.2192C6.83944 35.5768 6.94372 34.9353 7.048 34.2929C7.38545 34.2781 7.7229 34.2378 8.0505 34.1729C11.2872 33.5324 12.8997 30.5298 15.3415 25.9856C16.1502 24.4794 17.0681 22.7725 18.1532 20.9623C21.5916 15.2267 26.3011 7.37201 33.6836 6.64989C34.0466 6.61448 34.4126 6.59677 34.7815 6.59677V6.59578Z" fill="#FAFAFA"/>
<path d="M7.25951 36.9986C7.0657 36.9986 6.87189 36.9907 6.6771 36.976L5.85267 36.913L6.39671 33.5612L7.01455 33.5336C7.31362 33.5208 7.6127 33.4844 7.90391 33.4274C10.7884 32.8567 12.334 29.9801 14.6725 25.6258C15.4861 24.1107 16.4079 22.3959 17.5019 20.571C21.024 14.6967 25.8466 6.65206 33.6098 5.89355C33.9964 5.85616 34.39 5.83649 34.7815 5.83649C34.9193 5.83649 35.0157 5.83452 35.0865 5.83354C35.2783 5.8296 35.4426 5.82665 35.6443 5.91716C36.5779 6.33626 36.5288 7.71851 36.4107 8.72101L36.3231 9.45985L35.5823 9.38803C35.0501 9.33589 34.5139 9.33687 33.9896 9.38803C28.1202 9.96159 23.8416 17.0991 20.717 22.3113C19.6653 24.0655 18.7642 25.7428 17.9692 27.2215C13.8323 34.9218 11.0482 36.4083 8.65455 36.8677C8.19807 36.9553 7.72977 36.9996 7.25853 36.9996L7.25951 36.9986ZM7.70321 34.9985L7.62647 35.4688C7.87734 35.453 8.12526 35.4225 8.36925 35.3753C10.3929 34.9867 12.7954 33.6428 16.6303 26.5043C17.434 25.0079 18.3441 23.3148 19.4144 21.5292C22.7053 16.0405 27.2111 8.52425 33.842 7.87494C34.2089 7.83952 34.5808 7.82476 34.9527 7.83066C34.9557 7.60832 34.9409 7.45485 34.9242 7.3545C34.8819 7.3545 34.8337 7.3545 34.7815 7.3545C34.4392 7.3545 34.0948 7.37123 33.7584 7.40369C26.7566 8.08842 22.1612 15.7533 18.8065 21.3501C17.7302 23.1446 16.8182 24.8436 16.0134 26.341C13.5598 30.9078 11.788 34.2065 8.20003 34.9159C8.03672 34.9483 7.87144 34.9749 7.70419 34.9965L7.70321 34.9985Z" fill="#FAFAFA"/>
</svg>
